<svg width="122" height="40" viewBox="0 0 122 40" fill="none" xmlns="http://www.w3.org/2000/svg">
<path d="M41.7898 14.9901L42.2159 12.4545H54.1619L53.7358 14.9901H49.2827L47.294 27H44.2543L46.2429 14.9901H41.7898ZM53.7145 27L56.1293 12.4545H61.8679C62.9664 12.4545 63.8707 12.6487 64.581 13.0369C65.2959 13.4252 65.7978 13.9768 66.0866 14.6918C66.3802 15.402 66.4489 16.2401 66.2926 17.206C66.1316 18.1719 65.7836 19.0005 65.2486 19.6918C64.7183 20.383 64.027 20.9157 63.1747 21.2898C62.3272 21.6591 61.3447 21.8438 60.2273 21.8438H56.3849L56.8111 19.3722H60.1491C60.7363 19.3722 61.2382 19.2917 61.6548 19.1307C62.0715 18.9697 62.4006 18.7282 62.642 18.4062C62.8883 18.0843 63.0492 17.6842 63.125 17.206C63.2055 16.7183 63.1771 16.3111 63.0398 15.9844C62.9025 15.6529 62.6539 15.402 62.294 15.2315C61.9342 15.0563 61.4607 14.9688 60.8736 14.9688H58.7997L56.7898 27H53.7145ZM62.6634 20.3807L65.1847 27H61.7898L59.3466 20.3807H62.6634ZM69.4638 27H66.1683L73.6044 12.4545H77.5675L80.1669 27H76.8714L75.103 15.7784H74.9893L69.4638 27ZM70.2166 21.2827H78.0007L77.5888 23.6832H69.8047L70.2166 21.2827ZM85.1438 12.4545L86.8342 23.5057H86.9691L92.3171 12.4545H95.7262L88.2972 27H84.3342L81.7276 12.4545H85.1438ZM95.0621 27L97.4769 12.4545H107.278L106.852 14.9901H100.126L99.5579 18.456H105.779L105.353 20.9915H99.1317L98.5636 24.4645H105.318L104.892 27H95.0621ZM107.308 27L109.723 12.4545H112.798L110.81 24.4645H117.045L116.619 27H107.308Z" fill="white"/>
<path d="M32.1667 28.1667C33.1333 26.4833 33.75 24.45 33.0167 22.0833C32.1333 19.2167 29.6167 17 26.6167 16.7167C25.5042 16.5979 24.3792 16.7297 23.3243 17.1023C22.2693 17.4749 21.3112 18.0789 20.5201 18.87C19.7289 19.6612 19.1249 20.6193 18.7523 21.6743C18.3797 22.7292 18.2479 23.8542 18.3667 24.9667C18.6667 27.95 20.8667 30.4833 23.7333 31.3667C26.1167 32.1 28.1333 31.4833 29.8167 30.5167L33.9833 34.6833C34.6333 35.3333 35.6667 35.3333 36.3167 34.6833C36.4711 34.5308 36.5937 34.3491 36.6773 34.1489C36.761 33.9486 36.8041 33.7337 36.8041 33.5167C36.8041 33.2996 36.761 33.0847 36.6773 32.8845C36.5937 32.6842 36.4711 32.5025 36.3167 32.35L32.1667 28.1667ZM25.8333 28.3333C23.5 28.3333 21.6667 26.5 21.6667 24.1667C21.6667 21.8333 23.5 20 25.8333 20C28.1667 20 30 21.8333 30 24.1667C30 26.5 28.1667 28.3333 25.8333 28.3333ZM20 33.3333V36.6667C10.8 36.6667 3.33334 29.2 3.33334 20C3.33334 10.8 10.8 3.33333 20 3.33333C28.0667 3.33333 34.7833 9.06666 36.3333 16.6667H32.8833C32.3635 14.6531 31.3799 12.789 30.0111 11.2234C28.6422 9.65774 26.9262 8.43402 25 7.65V8.33333C25 10.1667 23.5 11.6667 21.6667 11.6667H18.3333V15C18.3333 15.9167 17.5833 16.6667 16.6667 16.6667H13.3333V20H16.6667V25H15L7.01668 17.0167C6.80001 17.9833 6.66668 18.9667 6.66668 20C6.66668 27.35 12.65 33.3333 20 33.3333Z" fill="#F8F8F8"/>
</svg>
